<svg height="1136" version="1.1" width="640" xmlns="http://www.w3.org/2000/svg" style="overflow: hidden; position: relative; width: 640px; height: 1136px; z-index: 100;"><desc style="-webkit-tap-highlight-color: rgba(0, 0, 0, 0);">Created with Raphaël 2.1.0</desc><defs style="-webkit-tap-highlight-color: rgba(0, 0, 0, 0);"><path stroke-linecap="round" d="M5,0 0,2.5 5,5z" id="raphael-marker-block" style="-webkit-tap-highlight-color: rgba(0, 0, 0, 0);"></path><marker id="raphael-marker-endblock55" markerHeight="5" markerWidth="5" orient="auto" refX="2.5" refY="2.5" style="-webkit-tap-highlight-color: rgba(0, 0, 0, 0);"><use xlink:href="#raphael-marker-block" transform="rotate(180 2.5 2.5) scale(1,1)" stroke-width="1.0000" fill="#000000" stroke="none" style="-webkit-tap-highlight-color: rgba(0, 0, 0, 0);"></use></marker></defs><path fill="none" stroke="#000000" d="M238,327L415,327" stroke-width="1" style="-webkit-tap-highlight-color: rgba(0, 0, 0, 0);"></path><text x="326.5" y="327" text-anchor="middle" font="10px &quot;Arial&quot;" stroke="none" fill="#000000" style="-webkit-tap-highlight-color: rgba(0, 0, 0, 0); text-anchor: middle; font-style: normal; font-variant: normal; font-weight: normal; font-size: 14px; line-height: normal; font-family: Arial;" font-size="14px" transform="matrix(1,0,0,1,0,-14)"><tspan style="-webkit-tap-highlight-color: rgba(0, 0, 0, 0);" dy="5">177</tspan></text><path fill="none" stroke="#000000" d="M246,327C246,327,244.61544799804688,327,242.9983345270157,327" stroke-width="2" marker-end="url(#raphael-marker-endblock55)" style="-webkit-tap-highlight-color: rgba(0, 0, 0, 0);"></path><path fill="none" stroke="#000000" d="M407,327C407,327,408.3845520019531,327,410.0016654729843,327" stroke-width="2" marker-end="url(#raphael-marker-endblock55)" style="-webkit-tap-highlight-color: rgba(0, 0, 0, 0);"></path><path fill="none" stroke="#000000" d="M238,321L238,333" stroke-width="1" style="-webkit-tap-highlight-color: rgba(0, 0, 0, 0);"></path><path fill="none" stroke="#000000" d="M415,321L415,333" stroke-width="1" style="-webkit-tap-highlight-color: rgba(0, 0, 0, 0);"></path><path fill="none" stroke="#000000" d="M285,504L285,696" stroke-width="1" style="-webkit-tap-highlight-color: rgba(0, 0, 0, 0);"></path><text x="285" y="600" text-anchor="middle" font="10px &quot;Arial&quot;" stroke="none" fill="#000000" style="-webkit-tap-highlight-color: rgba(0, 0, 0, 0); text-anchor: middle; font-style: normal; font-variant: normal; font-weight: normal; font-size: 14px; line-height: normal; font-family: Arial;" font-size="14px" transform="matrix(0,1,-1,0,898.4688,314.4688)"><tspan style="-webkit-tap-highlight-color: rgba(0, 0, 0, 0);" dy="5">192</tspan></text><path fill="none" stroke="#000000" d="M285,512C285,512,285,510.6154479980469,285,508.9983345270157" stroke-width="2" marker-end="url(#raphael-marker-endblock55)" style="-webkit-tap-highlight-color: rgba(0, 0, 0, 0);"></path><path fill="none" stroke="#000000" d="M285,688C285,688,285,689.3845520019531,285,691.0016654729843" stroke-width="2" marker-end="url(#raphael-marker-endblock55)" style="-webkit-tap-highlight-color: rgba(0, 0, 0, 0);"></path><path fill="none" stroke="#000000" d="M291,504L279,504" stroke-width="1" style="-webkit-tap-highlight-color: rgba(0, 0, 0, 0);"></path><path fill="none" stroke="#000000" d="M291,696L279,696" stroke-width="1" style="-webkit-tap-highlight-color: rgba(0, 0, 0, 0);"></path><path fill="none" stroke="#000000" d="M411,595L548,595" stroke-width="1" style="-webkit-tap-highlight-color: rgba(0, 0, 0, 0);"></path><text x="479.5" y="595" text-anchor="middle" font="10px &quot;Arial&quot;" stroke="none" fill="#000000" style="-webkit-tap-highlight-color: rgba(0, 0, 0, 0); text-anchor: middle; font-style: normal; font-variant: normal; font-weight: normal; font-size: 14px; line-height: normal; font-family: Arial;" font-size="14px" transform="matrix(1,0,0,1,0,-14)"><tspan style="-webkit-tap-highlight-color: rgba(0, 0, 0, 0);" dy="5">137</tspan></text><path fill="none" stroke="#000000" d="M419,595C419,595,417.6154479980469,595,415.9983345270157,595" stroke-width="2" marker-end="url(#raphael-marker-endblock55)" style="-webkit-tap-highlight-color: rgba(0, 0, 0, 0);"></path><path fill="none" stroke="#000000" d="M540,595C540,595,541.3845520019531,595,543.0016654729843,595" stroke-width="2" marker-end="url(#raphael-marker-endblock55)" style="-webkit-tap-highlight-color: rgba(0, 0, 0, 0);"></path><path fill="none" stroke="#000000" d="M411,589L411,601" stroke-width="1" style="-webkit-tap-highlight-color: rgba(0, 0, 0, 0);"></path><path fill="none" stroke="#000000" d="M548,589L548,601" stroke-width="1" style="-webkit-tap-highlight-color: rgba(0, 0, 0, 0);"></path><path fill="none" stroke="#000000" d="M356,487L356,569" stroke-width="1" style="-webkit-tap-highlight-color: rgba(0, 0, 0, 0);"></path><text x="356" y="528" text-anchor="middle" font="10px &quot;Arial&quot;" stroke="none" fill="#000000" style="-webkit-tap-highlight-color: rgba(0, 0, 0, 0); text-anchor: middle; font-style: normal; font-variant: normal; font-weight: normal; font-size: 14px; line-height: normal; font-family: Arial;" font-size="14px" transform="matrix(0,1,-1,0,898.1094,172.1094)"><tspan style="-webkit-tap-highlight-color: rgba(0, 0, 0, 0);" dy="5">82</tspan></text><path fill="none" stroke="#000000" d="M356,495C356,495,356,493.6154479980469,356,491.9983345270157" stroke-width="2" marker-end="url(#raphael-marker-endblock55)" style="-webkit-tap-highlight-color: rgba(0, 0, 0, 0);"></path><path fill="none" stroke="#000000" d="M356,561C356,561,356,562.3845520019531,356,564.0016654729843" stroke-width="2" marker-end="url(#raphael-marker-endblock55)" style="-webkit-tap-highlight-color: rgba(0, 0, 0, 0);"></path><path fill="none" stroke="#000000" d="M362,487L350,487" stroke-width="1" style="-webkit-tap-highlight-color: rgba(0, 0, 0, 0);"></path><path fill="none" stroke="#000000" d="M362,569L350,569" stroke-width="1" style="-webkit-tap-highlight-color: rgba(0, 0, 0, 0);"></path><path fill="none" stroke="#000000" d="M385,513L466,513" stroke-width="1" style="-webkit-tap-highlight-color: rgba(0, 0, 0, 0);"></path><text x="425.5" y="513" text-anchor="middle" font="10px &quot;Arial&quot;" stroke="none" fill="#000000" style="-webkit-tap-highlight-color: rgba(0, 0, 0, 0); text-anchor: middle; font-style: normal; font-variant: normal; font-weight: normal; font-size: 14px; line-height: normal; font-family: Arial;" font-size="14px" transform="matrix(1,0,0,1,0,-14)"><tspan style="-webkit-tap-highlight-color: rgba(0, 0, 0, 0);" dy="5">81</tspan></text><path fill="none" stroke="#000000" d="M393,513C393,513,391.6154479980469,513,389.9983345270157,513" stroke-width="2" marker-end="url(#raphael-marker-endblock55)" style="-webkit-tap-highlight-color: rgba(0, 0, 0, 0);"></path><path fill="none" stroke="#000000" d="M458,513C458,513,459.3845520019531,513,461.0016654729843,513" stroke-width="2" marker-end="url(#raphael-marker-endblock55)" style="-webkit-tap-highlight-color: rgba(0, 0, 0, 0);"></path><path fill="none" stroke="#000000" d="M385,507L385,519" stroke-width="1" style="-webkit-tap-highlight-color: rgba(0, 0, 0, 0);"></path><path fill="none" stroke="#000000" d="M466,507L466,519" stroke-width="1" style="-webkit-tap-highlight-color: rgba(0, 0, 0, 0);"></path></svg>