<svg height="250" version="1.1" width="250" xmlns="http://www.w3.org/2000/svg" style="overflow: hidden; position: relative; width: 250px; height: 250px; z-index: 100;"><desc style="-webkit-tap-highlight-color: rgba(0, 0, 0, 0);">Created with Raphaël 2.1.0</desc><defs style="-webkit-tap-highlight-color: rgba(0, 0, 0, 0);"><path stroke-linecap="round" d="M5,0 0,2.5 5,5z" id="raphael-marker-block" style="-webkit-tap-highlight-color: rgba(0, 0, 0, 0);"></path><marker id="raphael-marker-endblock55" markerHeight="5" markerWidth="5" orient="auto" refX="2.5" refY="2.5" style="-webkit-tap-highlight-color: rgba(0, 0, 0, 0);"><use xlink:href="#raphael-marker-block" transform="rotate(180 2.5 2.5) scale(1,1)" stroke-width="1.0000" fill="#000000" stroke="none" style="-webkit-tap-highlight-color: rgba(0, 0, 0, 0);"></use></marker></defs><path fill="none" stroke="#000000" d="M162,108L52,108" stroke-width="1" style="-webkit-tap-highlight-color: rgba(0, 0, 0, 0);"></path><text x="107" y="108" text-anchor="middle" font="10px &quot;Arial&quot;" stroke="none" fill="#000000" style="-webkit-tap-highlight-color: rgba(0, 0, 0, 0); text-anchor: middle; font-style: normal; font-variant: normal; font-weight: normal; font-size: 14px; line-height: normal; font-family: Arial;" font-size="14px" transform="matrix(1,0,0,1,0,-14)"><tspan style="-webkit-tap-highlight-color: rgba(0, 0, 0, 0);" dy="5">110</tspan></text><path fill="none" stroke="#000000" d="M154,108C154,108,155.38455200195312,108,157.0016654729843,108" stroke-width="2" marker-end="url(#raphael-marker-endblock55)" style="-webkit-tap-highlight-color: rgba(0, 0, 0, 0);"></path><path fill="none" stroke="#000000" d="M60,108C60,108,58.615447998046875,108,56.998334527015686,108" stroke-width="2" marker-end="url(#raphael-marker-endblock55)" style="-webkit-tap-highlight-color: rgba(0, 0, 0, 0);"></path><path fill="none" stroke="#000000" d="M162,114L162,102" stroke-width="1" style="-webkit-tap-highlight-color: rgba(0, 0, 0, 0);"></path><path fill="none" stroke="#000000" d="M52,114L52,102" stroke-width="1" style="-webkit-tap-highlight-color: rgba(0, 0, 0, 0);"></path><path fill="none" stroke="#000000" d="M83,53L83,212" stroke-width="1" style="-webkit-tap-highlight-color: rgba(0, 0, 0, 0);"></path><text x="83" y="132.5" text-anchor="middle" font="10px &quot;Arial&quot;" stroke="none" fill="#000000" style="-webkit-tap-highlight-color: rgba(0, 0, 0, 0); text-anchor: middle; font-style: normal; font-variant: normal; font-weight: normal; font-size: 14px; line-height: normal; font-family: Arial;" font-size="14px" transform="matrix(0,1,-1,0,229.5469,49.5469)"><tspan style="-webkit-tap-highlight-color: rgba(0, 0, 0, 0);" dy="5">159</tspan></text><path fill="none" stroke="#000000" d="M83,61C83,61,83,59.615447998046875,83,57.998334527015686" stroke-width="2" marker-end="url(#raphael-marker-endblock55)" style="-webkit-tap-highlight-color: rgba(0, 0, 0, 0);"></path><path fill="none" stroke="#000000" d="M83,204C83,204,83,205.38455200195312,83,207.0016654729843" stroke-width="2" marker-end="url(#raphael-marker-endblock55)" style="-webkit-tap-highlight-color: rgba(0, 0, 0, 0);"></path><path fill="none" stroke="#000000" d="M89,53L77,53" stroke-width="1" style="-webkit-tap-highlight-color: rgba(0, 0, 0, 0);"></path><path fill="none" stroke="#000000" d="M89,212L77,212" stroke-width="1" style="-webkit-tap-highlight-color: rgba(0, 0, 0, 0);"></path><path fill="none" stroke="#000000" d="M127,89L249,89" stroke-width="1" style="-webkit-tap-highlight-color: rgba(0, 0, 0, 0);"></path><text x="188" y="89" text-anchor="middle" font="10px &quot;Arial&quot;" stroke="none" fill="#000000" style="-webkit-tap-highlight-color: rgba(0, 0, 0, 0); text-anchor: middle; font-style: normal; font-variant: normal; font-weight: normal; font-size: 14px; line-height: normal; font-family: Arial;" font-size="14px" transform="matrix(1,0,0,1,0,-14)"><tspan style="-webkit-tap-highlight-color: rgba(0, 0, 0, 0);" dy="5">122</tspan></text><path fill="none" stroke="#000000" d="M135,89C135,89,133.61544799804688,89,131.9983345270157,89" stroke-width="2" marker-end="url(#raphael-marker-endblock55)" style="-webkit-tap-highlight-color: rgba(0, 0, 0, 0);"></path><path fill="none" stroke="#000000" d="M241,89C241,89,242.38455200195312,89,244.0016654729843,89" stroke-width="2" marker-end="url(#raphael-marker-endblock55)" style="-webkit-tap-highlight-color: rgba(0, 0, 0, 0);"></path><path fill="none" stroke="#000000" d="M127,83L127,95" stroke-width="1" style="-webkit-tap-highlight-color: rgba(0, 0, 0, 0);"></path><path fill="none" stroke="#000000" d="M249,83L249,95" stroke-width="1" style="-webkit-tap-highlight-color: rgba(0, 0, 0, 0);"></path><path fill="none" stroke="#000000" d="M161,31L161,193" stroke-width="1" style="-webkit-tap-highlight-color: rgba(0, 0, 0, 0);"></path><text x="161" y="112" text-anchor="middle" font="10px &quot;Arial&quot;" stroke="none" fill="#000000" style="-webkit-tap-highlight-color: rgba(0, 0, 0, 0); text-anchor: middle; font-style: normal; font-variant: normal; font-weight: normal; font-size: 14px; line-height: normal; font-family: Arial;" font-size="14px" transform="matrix(0,1,-1,0,287.0469,-48.9531)"><tspan style="-webkit-tap-highlight-color: rgba(0, 0, 0, 0);" dy="5">162</tspan></text><path fill="none" stroke="#000000" d="M161,39C161,39,161,37.615447998046875,161,35.998334527015686" stroke-width="2" marker-end="url(#raphael-marker-endblock55)" style="-webkit-tap-highlight-color: rgba(0, 0, 0, 0);"></path><path fill="none" stroke="#000000" d="M161,185C161,185,161,186.38455200195312,161,188.0016654729843" stroke-width="2" marker-end="url(#raphael-marker-endblock55)" style="-webkit-tap-highlight-color: rgba(0, 0, 0, 0);"></path><path fill="none" stroke="#000000" d="M167,31L155,31" stroke-width="1" style="-webkit-tap-highlight-color: rgba(0, 0, 0, 0);"></path><path fill="none" stroke="#000000" d="M167,193L155,193" stroke-width="1" style="-webkit-tap-highlight-color: rgba(0, 0, 0, 0);"></path><path fill="none" stroke="#000000" d="M216,191L57,191" stroke-width="1" style="-webkit-tap-highlight-color: rgba(0, 0, 0, 0);"></path><text x="136.5" y="191" text-anchor="middle" font="10px &quot;Arial&quot;" stroke="none" fill="#000000" style="-webkit-tap-highlight-color: rgba(0, 0, 0, 0); text-anchor: middle; font-style: normal; font-variant: normal; font-weight: normal; font-size: 14px; line-height: normal; font-family: Arial;" font-size="14px" transform="matrix(1,0,0,1,0,-14)"><tspan style="-webkit-tap-highlight-color: rgba(0, 0, 0, 0);" dy="5">159</tspan></text><path fill="none" stroke="#000000" d="M208,191C208,191,209.38455200195312,191,211.0016654729843,191" stroke-width="2" marker-end="url(#raphael-marker-endblock55)" style="-webkit-tap-highlight-color: rgba(0, 0, 0, 0);"></path><path fill="none" stroke="#000000" d="M65,191C65,191,63.615447998046875,191,61.998334527015686,191" stroke-width="2" marker-end="url(#raphael-marker-endblock55)" style="-webkit-tap-highlight-color: rgba(0, 0, 0, 0);"></path><path fill="none" stroke="#000000" d="M216,197L216,185" stroke-width="1" style="-webkit-tap-highlight-color: rgba(0, 0, 0, 0);"></path><path fill="none" stroke="#000000" d="M57,197L57,185" stroke-width="1" style="-webkit-tap-highlight-color: rgba(0, 0, 0, 0);"></path><path fill="none" stroke="#000000" d="M47,50L47,187" stroke-width="1" style="-webkit-tap-highlight-color: rgba(0, 0, 0, 0);"></path><text x="47" y="118.5" text-anchor="middle" font="10px &quot;Arial&quot;" stroke="none" fill="#000000" style="-webkit-tap-highlight-color: rgba(0, 0, 0, 0); text-anchor: middle; font-style: normal; font-variant: normal; font-weight: normal; font-size: 14px; line-height: normal; font-family: Arial;" font-size="14px" transform="matrix(0,1,-1,0,179.5469,71.5469)"><tspan style="-webkit-tap-highlight-color: rgba(0, 0, 0, 0);" dy="5">137</tspan></text><path fill="none" stroke="#000000" d="M47,58C47,58,47,56.615447998046875,47,54.998334527015686" stroke-width="2" marker-end="url(#raphael-marker-endblock55)" style="-webkit-tap-highlight-color: rgba(0, 0, 0, 0);"></path><path fill="none" stroke="#000000" d="M47,179C47,179,47,180.38455200195312,47,182.0016654729843" stroke-width="2" marker-end="url(#raphael-marker-endblock55)" style="-webkit-tap-highlight-color: rgba(0, 0, 0, 0);"></path><path fill="none" stroke="#000000" d="M53,50L41,50" stroke-width="1" style="-webkit-tap-highlight-color: rgba(0, 0, 0, 0);"></path><path fill="none" stroke="#000000" d="M53,187L41,187" stroke-width="1" style="-webkit-tap-highlight-color: rgba(0, 0, 0, 0);"></path><path fill="none" stroke="#000000" d="M18,142L125,142" stroke-width="1" style="-webkit-tap-highlight-color: rgba(0, 0, 0, 0);"></path><text x="71.5" y="142" text-anchor="middle" font="10px &quot;Arial&quot;" stroke="none" fill="#000000" style="-webkit-tap-highlight-color: rgba(0, 0, 0, 0); text-anchor: middle; font-style: normal; font-variant: normal; font-weight: normal; font-size: 14px; line-height: normal; font-family: Arial;" font-size="14px" transform="matrix(1,0,0,1,0,-14)"><tspan style="-webkit-tap-highlight-color: rgba(0, 0, 0, 0);" dy="5">107</tspan></text><path fill="none" stroke="#000000" d="M26,142C26,142,24.615447998046875,142,22.998334527015686,142" stroke-width="2" marker-end="url(#raphael-marker-endblock55)" style="-webkit-tap-highlight-color: rgba(0, 0, 0, 0);"></path><path fill="none" stroke="#000000" d="M117,142C117,142,118.38455200195312,142,120.00166547298431,142" stroke-width="2" marker-end="url(#raphael-marker-endblock55)" style="-webkit-tap-highlight-color: rgba(0, 0, 0, 0);"></path><path fill="none" stroke="#000000" d="M18,136L18,148" stroke-width="1" style="-webkit-tap-highlight-color: rgba(0, 0, 0, 0);"></path><path fill="none" stroke="#000000" d="M125,136L125,148" stroke-width="1" style="-webkit-tap-highlight-color: rgba(0, 0, 0, 0);"></path></svg>