<svg height="220" version="1.1" width="220" xmlns="http://www.w3.org/2000/svg" style="overflow: hidden; position: relative; width: 220px; height: 220px; z-index: 100;"><desc style="-webkit-tap-highlight-color: rgba(0, 0, 0, 0);">Created with Raphaël 2.1.0</desc><defs style="-webkit-tap-highlight-color: rgba(0, 0, 0, 0);"><path stroke-linecap="round" d="M5,0 0,2.5 5,5z" id="raphael-marker-block" style="-webkit-tap-highlight-color: rgba(0, 0, 0, 0);"></path><marker id="raphael-marker-endblock55" markerHeight="5" markerWidth="5" orient="auto" refX="2.5" refY="2.5" style="-webkit-tap-highlight-color: rgba(0, 0, 0, 0);"><use xlink:href="#raphael-marker-block" transform="rotate(180 2.5 2.5) scale(1,1)" stroke-width="1.0000" fill="#000000" stroke="none" style="-webkit-tap-highlight-color: rgba(0, 0, 0, 0);"></use></marker></defs><path fill="none" stroke="#000000" d="M47,28L47,103" stroke-width="1" style="-webkit-tap-highlight-color: rgba(0, 0, 0, 0);"></path><text x="47" y="65.5" text-anchor="middle" font="10px &quot;Arial&quot;" stroke="none" fill="#000000" style="-webkit-tap-highlight-color: rgba(0, 0, 0, 0); text-anchor: middle; font-style: normal; font-variant: normal; font-weight: normal; font-size: 14px; line-height: normal; font-family: Arial;" font-size="14px" transform="matrix(0,1,-1,0,126.3594,18.3594)"><tspan style="-webkit-tap-highlight-color: rgba(0, 0, 0, 0);" dy="5">75</tspan></text><path fill="none" stroke="#000000" d="M47,36C47,36,47,34.615447998046875,47,32.998334527015686" stroke-width="2" marker-end="url(#raphael-marker-endblock55)" style="-webkit-tap-highlight-color: rgba(0, 0, 0, 0);"></path><path fill="none" stroke="#000000" d="M47,95C47,95,47,96.38455200195312,47,98.00166547298431" stroke-width="2" marker-end="url(#raphael-marker-endblock55)" style="-webkit-tap-highlight-color: rgba(0, 0, 0, 0);"></path><path fill="none" stroke="#000000" d="M53,28L41,28" stroke-width="1" style="-webkit-tap-highlight-color: rgba(0, 0, 0, 0);"></path><path fill="none" stroke="#000000" d="M53,103L41,103" stroke-width="1" style="-webkit-tap-highlight-color: rgba(0, 0, 0, 0);"></path><path fill="none" stroke="#000000" d="M94,74L171,74" stroke-width="1" style="-webkit-tap-highlight-color: rgba(0, 0, 0, 0);"></path><text x="132.5" y="74" text-anchor="middle" font="10px &quot;Arial&quot;" stroke="none" fill="#000000" style="-webkit-tap-highlight-color: rgba(0, 0, 0, 0); text-anchor: middle; font-style: normal; font-variant: normal; font-weight: normal; font-size: 14px; line-height: normal; font-family: Arial;" font-size="14px" transform="matrix(1,0,0,1,0,-14)"><tspan style="-webkit-tap-highlight-color: rgba(0, 0, 0, 0);" dy="5">77</tspan></text><path fill="none" stroke="#000000" d="M102,74C102,74,100.61544799804688,74,98.99833452701569,74" stroke-width="2" marker-end="url(#raphael-marker-endblock55)" style="-webkit-tap-highlight-color: rgba(0, 0, 0, 0);"></path><path fill="none" stroke="#000000" d="M163,74C163,74,164.38455200195312,74,166.0016654729843,74" stroke-width="2" marker-end="url(#raphael-marker-endblock55)" style="-webkit-tap-highlight-color: rgba(0, 0, 0, 0);"></path><path fill="none" stroke="#000000" d="M94,68L94,80" stroke-width="1" style="-webkit-tap-highlight-color: rgba(0, 0, 0, 0);"></path><path fill="none" stroke="#000000" d="M171,68L171,80" stroke-width="1" style="-webkit-tap-highlight-color: rgba(0, 0, 0, 0);"></path><path fill="none" stroke="#000000" d="M122,119L122,203" stroke-width="1" style="-webkit-tap-highlight-color: rgba(0, 0, 0, 0);"></path><text x="122" y="161" text-anchor="middle" font="10px &quot;Arial&quot;" stroke="none" fill="#000000" style="-webkit-tap-highlight-color: rgba(0, 0, 0, 0); text-anchor: middle; font-style: normal; font-variant: normal; font-weight: normal; font-size: 14px; line-height: normal; font-family: Arial;" font-size="14px" transform="matrix(0,1,-1,0,296.8594,38.8594)"><tspan style="-webkit-tap-highlight-color: rgba(0, 0, 0, 0);" dy="5">84</tspan></text><path fill="none" stroke="#000000" d="M122,127C122,127,122,125.61544799804688,122,123.99833452701569" stroke-width="2" marker-end="url(#raphael-marker-endblock55)" style="-webkit-tap-highlight-color: rgba(0, 0, 0, 0);"></path><path fill="none" stroke="#000000" d="M122,195C122,195,122,196.38455200195312,122,198.0016654729843" stroke-width="2" marker-end="url(#raphael-marker-endblock55)" style="-webkit-tap-highlight-color: rgba(0, 0, 0, 0);"></path><path fill="none" stroke="#000000" d="M128,119L116,119" stroke-width="1" style="-webkit-tap-highlight-color: rgba(0, 0, 0, 0);"></path><path fill="none" stroke="#000000" d="M128,203L116,203" stroke-width="1" style="-webkit-tap-highlight-color: rgba(0, 0, 0, 0);"></path><path fill="none" stroke="#000000" d="M46,163L190,163" stroke-width="1" style="-webkit-tap-highlight-color: rgba(0, 0, 0, 0);"></path><text x="118" y="163" text-anchor="middle" font="10px &quot;Arial&quot;" stroke="none" fill="#000000" style="-webkit-tap-highlight-color: rgba(0, 0, 0, 0); text-anchor: middle; font-style: normal; font-variant: normal; font-weight: normal; font-size: 14px; line-height: normal; font-family: Arial;" font-size="14px" transform="matrix(1,0,0,1,0,-14)"><tspan style="-webkit-tap-highlight-color: rgba(0, 0, 0, 0);" dy="5">144</tspan></text><path fill="none" stroke="#000000" d="M54,163C54,163,52.615447998046875,163,50.998334527015686,163" stroke-width="2" marker-end="url(#raphael-marker-endblock55)" style="-webkit-tap-highlight-color: rgba(0, 0, 0, 0);"></path><path fill="none" stroke="#000000" d="M182,163C182,163,183.38455200195312,163,185.0016654729843,163" stroke-width="2" marker-end="url(#raphael-marker-endblock55)" style="-webkit-tap-highlight-color: rgba(0, 0, 0, 0);"></path><path fill="none" stroke="#000000" d="M46,157L46,169" stroke-width="1" style="-webkit-tap-highlight-color: rgba(0, 0, 0, 0);"></path><path fill="none" stroke="#000000" d="M190,157L190,169" stroke-width="1" style="-webkit-tap-highlight-color: rgba(0, 0, 0, 0);"></path><path fill="none" stroke="#000000" d="M179,104L179,184" stroke-width="1" style="-webkit-tap-highlight-color: rgba(0, 0, 0, 0);"></path><text x="179" y="144" text-anchor="middle" font="10px &quot;Arial&quot;" stroke="none" fill="#000000" style="-webkit-tap-highlight-color: rgba(0, 0, 0, 0); text-anchor: middle; font-style: normal; font-variant: normal; font-weight: normal; font-size: 14px; line-height: normal; font-family: Arial;" font-size="14px" transform="matrix(0,1,-1,0,336.8594,-35.1406)"><tspan style="-webkit-tap-highlight-color: rgba(0, 0, 0, 0);" dy="5">80</tspan></text><path fill="none" stroke="#000000" d="M179,112C179,112,179,110.61544799804688,179,108.99833452701569" stroke-width="2" marker-end="url(#raphael-marker-endblock55)" style="-webkit-tap-highlight-color: rgba(0, 0, 0, 0);"></path><path fill="none" stroke="#000000" d="M179,176C179,176,179,177.38455200195312,179,179.0016654729843" stroke-width="2" marker-end="url(#raphael-marker-endblock55)" style="-webkit-tap-highlight-color: rgba(0, 0, 0, 0);"></path><path fill="none" stroke="#000000" d="M185,104L173,104" stroke-width="1" style="-webkit-tap-highlight-color: rgba(0, 0, 0, 0);"></path><path fill="none" stroke="#000000" d="M185,184L173,184" stroke-width="1" style="-webkit-tap-highlight-color: rgba(0, 0, 0, 0);"></path></svg>