<svg height="220" version="1.1" width="220" xmlns="http://www.w3.org/2000/svg" style="overflow: hidden; position: relative; width: 220px; height: 220px; z-index: 100;"><desc style="-webkit-tap-highlight-color: rgba(0, 0, 0, 0);">Created with Raphaël 2.1.0</desc><defs style="-webkit-tap-highlight-color: rgba(0, 0, 0, 0);"><path stroke-linecap="round" d="M5,0 0,2.5 5,5z" id="raphael-marker-block" style="-webkit-tap-highlight-color: rgba(0, 0, 0, 0);"></path><marker id="raphael-marker-endblock55" markerHeight="5" markerWidth="5" orient="auto" refX="2.5" refY="2.5" style="-webkit-tap-highlight-color: rgba(0, 0, 0, 0);"><use xlink:href="#raphael-marker-block" transform="rotate(180 2.5 2.5) scale(1,1)" stroke-width="1.0000" fill="#000000" stroke="none" style="-webkit-tap-highlight-color: rgba(0, 0, 0, 0);"></use></marker></defs><path fill="none" stroke="#000000" d="M42,38L106,38" stroke-width="1" style="-webkit-tap-highlight-color: rgba(0, 0, 0, 0);"></path><text x="74" y="38" text-anchor="middle" font="10px &quot;Arial&quot;" stroke="none" fill="#000000" style="-webkit-tap-highlight-color: rgba(0, 0, 0, 0); text-anchor: middle; font-style: normal; font-variant: normal; font-weight: normal; font-size: 14px; line-height: normal; font-family: Arial;" font-size="14px" transform="matrix(1,0,0,1,0,-14)"><tspan style="-webkit-tap-highlight-color: rgba(0, 0, 0, 0);" dy="5">64</tspan></text><path fill="none" stroke="#000000" d="M50,38C50,38,48.615447998046875,38,46.998334527015686,38" stroke-width="2" marker-end="url(#raphael-marker-endblock55)" style="-webkit-tap-highlight-color: rgba(0, 0, 0, 0);"></path><path fill="none" stroke="#000000" d="M98,38C98,38,99.38455200195312,38,101.00166547298431,38" stroke-width="2" marker-end="url(#raphael-marker-endblock55)" style="-webkit-tap-highlight-color: rgba(0, 0, 0, 0);"></path><path fill="none" stroke="#000000" d="M42,32L42,44" stroke-width="1" style="-webkit-tap-highlight-color: rgba(0, 0, 0, 0);"></path><path fill="none" stroke="#000000" d="M106,32L106,44" stroke-width="1" style="-webkit-tap-highlight-color: rgba(0, 0, 0, 0);"></path><path fill="none" stroke="#000000" d="M78,60L78,140" stroke-width="1" style="-webkit-tap-highlight-color: rgba(0, 0, 0, 0);"></path><text x="78" y="100" text-anchor="middle" font="10px &quot;Arial&quot;" stroke="none" fill="#000000" style="-webkit-tap-highlight-color: rgba(0, 0, 0, 0); text-anchor: middle; font-style: normal; font-variant: normal; font-weight: normal; font-size: 14px; line-height: normal; font-family: Arial;" font-size="14px" transform="matrix(0,1,-1,0,192.2109,22.2109)"><tspan style="-webkit-tap-highlight-color: rgba(0, 0, 0, 0);" dy="5">80</tspan></text><path fill="none" stroke="#000000" d="M78,68C78,68,78,66.61544799804688,78,64.99833452701569" stroke-width="2" marker-end="url(#raphael-marker-endblock55)" style="-webkit-tap-highlight-color: rgba(0, 0, 0, 0);"></path><path fill="none" stroke="#000000" d="M78,132C78,132,78,133.38455200195312,78,135.0016654729843" stroke-width="2" marker-end="url(#raphael-marker-endblock55)" style="-webkit-tap-highlight-color: rgba(0, 0, 0, 0);"></path><path fill="none" stroke="#000000" d="M84,60L72,60" stroke-width="1" style="-webkit-tap-highlight-color: rgba(0, 0, 0, 0);"></path><path fill="none" stroke="#000000" d="M84,140L72,140" stroke-width="1" style="-webkit-tap-highlight-color: rgba(0, 0, 0, 0);"></path><path fill="none" stroke="#000000" d="M153,55L153,172" stroke-width="1" style="-webkit-tap-highlight-color: rgba(0, 0, 0, 0);"></path><text x="153" y="113.5" text-anchor="middle" font="10px &quot;Arial&quot;" stroke="none" fill="#000000" style="-webkit-tap-highlight-color: rgba(0, 0, 0, 0); text-anchor: middle; font-style: normal; font-variant: normal; font-weight: normal; font-size: 14px; line-height: normal; font-family: Arial;" font-size="14px" transform="matrix(0,1,-1,0,280.7109,-39.2891)"><tspan style="-webkit-tap-highlight-color: rgba(0, 0, 0, 0);" dy="5">117</tspan></text><path fill="none" stroke="#000000" d="M153,63C153,63,153,61.615447998046875,153,59.998334527015686" stroke-width="2" marker-end="url(#raphael-marker-endblock55)" style="-webkit-tap-highlight-color: rgba(0, 0, 0, 0);"></path><path fill="none" stroke="#000000" d="M153,164C153,164,153,165.38455200195312,153,167.0016654729843" stroke-width="2" marker-end="url(#raphael-marker-endblock55)" style="-webkit-tap-highlight-color: rgba(0, 0, 0, 0);"></path><path fill="none" stroke="#000000" d="M159,55L147,55" stroke-width="1" style="-webkit-tap-highlight-color: rgba(0, 0, 0, 0);"></path><path fill="none" stroke="#000000" d="M159,172L147,172" stroke-width="1" style="-webkit-tap-highlight-color: rgba(0, 0, 0, 0);"></path><path fill="none" stroke="#000000" d="M34,104L209,104" stroke-width="1" style="-webkit-tap-highlight-color: rgba(0, 0, 0, 0);"></path><text x="121.5" y="104" text-anchor="middle" font="10px &quot;Arial&quot;" stroke="none" fill="#000000" style="-webkit-tap-highlight-color: rgba(0, 0, 0, 0); text-anchor: middle; font-style: normal; font-variant: normal; font-weight: normal; font-size: 14px; line-height: normal; font-family: Arial;" font-size="14px" transform="matrix(1,0,0,1,0,-14)"><tspan style="-webkit-tap-highlight-color: rgba(0, 0, 0, 0);" dy="5">175</tspan></text><path fill="none" stroke="#000000" d="M42,104C42,104,40.615447998046875,104,38.998334527015686,104" stroke-width="2" marker-end="url(#raphael-marker-endblock55)" style="-webkit-tap-highlight-color: rgba(0, 0, 0, 0);"></path><path fill="none" stroke="#000000" d="M201,104C201,104,202.38455200195312,104,204.0016654729843,104" stroke-width="2" marker-end="url(#raphael-marker-endblock55)" style="-webkit-tap-highlight-color: rgba(0, 0, 0, 0);"></path><path fill="none" stroke="#000000" d="M34,98L34,110" stroke-width="1" style="-webkit-tap-highlight-color: rgba(0, 0, 0, 0);"></path><path fill="none" stroke="#000000" d="M209,98L209,110" stroke-width="1" style="-webkit-tap-highlight-color: rgba(0, 0, 0, 0);"></path></svg>